<svg width="129" height="12" viewBox="0 0 129 12" fill="none" xmlns="http://www.w3.org/2000/svg">
<path d="M0.000266314 0.158558H2.57981L6.03436 8.59038H6.17072L9.62527 0.158558H12.2048V11.7949H10.1821V3.8006H10.0741L6.85822 11.7608H5.34686L2.13095 3.78356H2.02299V11.7949H0.000266314V0.158558ZM16.3146 11.7949H14.0646L18.1612 0.158558H20.7634L24.8657 11.7949H22.6157L19.5078 2.54492H19.4169L16.3146 11.7949ZM16.3884 7.23242H22.5248V8.9256H16.3884V7.23242ZM36.2809 0.158558V11.7949H34.4059L28.9229 3.86879H28.8263V11.7949H26.7184V0.158558H28.6048L34.082 8.09038H34.1843V0.158558H36.2809ZM38.8978 11.7949V0.158558H46.4659V1.9256H41.0057V5.08469H46.0739V6.85174H41.0057V10.0279H46.5114V11.7949H38.8978ZM53.2253 0.158558H55.8048L59.2594 8.59038H59.3957L62.8503 0.158558H65.4298V11.7949H63.4071V3.8006H63.2991L60.0832 11.7608H58.5719L55.3559 3.78356H55.248V11.7949H53.2253V0.158558ZM75.3805 0.158558H77.4884V7.76083C77.4884 8.59416 77.2915 9.32712 76.8975 9.95969C76.5074 10.5923 75.9581 11.0866 75.2498 11.4426C74.5415 11.7949 73.7138 11.9711 72.7669 11.9711C71.8161 11.9711 70.9866 11.7949 70.2782 11.4426C69.5699 11.0866 69.0206 10.5923 68.6305 9.95969C68.2403 9.32712 68.0453 8.59416 68.0453 7.76083V0.158558H70.1532V7.58469C70.1532 8.06954 70.2593 8.50136 70.4714 8.88015C70.6873 9.25894 70.9903 9.55629 71.3805 9.77219C71.7706 9.98432 72.2328 10.0904 72.7669 10.0904C73.3009 10.0904 73.7631 9.98432 74.1532 9.77219C74.5472 9.55629 74.8502 9.25894 75.0623 8.88015C75.2744 8.50136 75.3805 8.06954 75.3805 7.58469V0.158558ZM86.4235 3.35742C86.3705 2.86121 86.147 2.47485 85.753 2.19833C85.3629 1.92182 84.8553 1.78356 84.2303 1.78356C83.7909 1.78356 83.414 1.84985 83.0996 1.98242C82.7852 2.115 82.5447 2.29492 82.378 2.52219C82.2114 2.74947 82.1262 3.00894 82.1224 3.3006C82.1224 3.54303 82.1773 3.75326 82.2871 3.93129C82.4008 4.10932 82.5542 4.26083 82.7474 4.38583C82.9405 4.50704 83.1546 4.60932 83.3894 4.69265C83.6243 4.77598 83.861 4.84606 84.0996 4.90288L85.1905 5.1756C85.6299 5.27788 86.0523 5.41613 86.4576 5.59038C86.8667 5.76462 87.2322 5.98432 87.5542 6.24947C87.8799 6.51462 88.1375 6.83469 88.3269 7.20969C88.5163 7.58469 88.611 8.02409 88.611 8.52788C88.611 9.20969 88.4368 9.81007 88.0883 10.329C87.7398 10.8442 87.236 11.2476 86.5769 11.5392C85.9216 11.8271 85.128 11.9711 84.1962 11.9711C83.2909 11.9711 82.5049 11.8309 81.8383 11.5506C81.1754 11.2703 80.6565 10.8612 80.2815 10.3233C79.9102 9.78545 79.7095 9.13015 79.6792 8.35742H81.753C81.7834 8.76272 81.9084 9.09985 82.128 9.36879C82.3477 9.63772 82.6337 9.83848 82.986 9.97106C83.3421 10.1036 83.7398 10.1699 84.1792 10.1699C84.6375 10.1699 85.039 10.1017 85.3837 9.96538C85.7322 9.82522 86.0049 9.63204 86.2019 9.38583C86.3989 9.13583 86.4993 8.84416 86.503 8.51083C86.4993 8.2078 86.4102 7.9578 86.236 7.76083C86.0618 7.56007 85.8174 7.39341 85.503 7.26083C85.1924 7.12447 84.8288 7.00326 84.4121 6.89719L83.0883 6.55629C82.1299 6.31007 81.3724 5.93697 80.8155 5.43697C80.2625 4.93318 79.986 4.26462 79.986 3.43128C79.986 2.74568 80.1716 2.1453 80.5428 1.63015C80.9178 1.115 81.4273 0.715376 82.0712 0.431285C82.7152 0.143406 83.4443 -0.000533104 84.2587 -0.000533104C85.0845 -0.000533104 85.808 0.143406 86.4292 0.431285C87.0542 0.715376 87.5447 1.11121 87.9008 1.61878C88.2568 2.12257 88.4405 2.70212 88.4519 3.35742H86.4235ZM92.9182 0.158558V11.7949H90.8103V0.158558H92.9182ZM105.083 0.158558V11.7949H103.208L97.7254 3.86879H97.6288V11.7949H95.5209V0.158558H97.4073L102.885 8.09038H102.987V0.158558H105.083ZM115.496 3.87447C115.401 3.56765 115.27 3.29303 115.104 3.0506C114.941 2.80439 114.744 2.59416 114.513 2.41992C114.285 2.24568 114.024 2.115 113.729 2.02788C113.433 1.93697 113.111 1.89151 112.763 1.89151C112.138 1.89151 111.581 2.04871 111.092 2.3631C110.604 2.6775 110.219 3.13962 109.939 3.74947C109.662 4.35553 109.524 5.09416 109.524 5.96538C109.524 6.84416 109.662 7.58848 109.939 8.19833C110.215 8.80818 110.6 9.27219 111.092 9.59038C111.585 9.90477 112.157 10.062 112.808 10.062C113.399 10.062 113.91 9.94833 114.342 9.72106C114.778 9.49379 115.113 9.17182 115.348 8.75515C115.583 8.33469 115.7 7.84227 115.7 7.27788L116.178 7.35174H113.018V5.70401H117.74V7.10174C117.74 8.09795 117.528 8.95969 117.104 9.68697C116.679 10.4142 116.096 10.9748 115.354 11.3688C114.611 11.7589 113.759 11.954 112.797 11.954C111.725 11.954 110.784 11.7135 109.973 11.2324C109.166 10.7476 108.535 10.0601 108.081 9.16992C107.63 8.27598 107.405 7.21538 107.405 5.9881C107.405 5.04871 107.537 4.20969 107.803 3.47106C108.071 2.73242 108.446 2.10553 108.928 1.59038C109.409 1.07144 109.973 0.677497 110.621 0.408558C111.268 0.135831 111.973 -0.000533104 112.734 -0.000533104C113.378 -0.000533104 113.979 0.0941639 114.535 0.283558C115.092 0.469164 115.587 0.734316 116.018 1.07901C116.454 1.42371 116.812 1.8328 117.092 2.30628C117.373 2.77977 117.556 3.3025 117.643 3.87447H115.496ZM126.422 3.35742C126.369 2.86121 126.146 2.47485 125.752 2.19833C125.362 1.92182 124.854 1.78356 124.229 1.78356C123.79 1.78356 123.413 1.84985 123.098 1.98242C122.784 2.115 122.543 2.29492 122.377 2.52219C122.21 2.74947 122.125 3.00894 122.121 3.3006C122.121 3.54303 122.176 3.75326 122.286 3.93129C122.4 4.10932 122.553 4.26083 122.746 4.38583C122.939 4.50704 123.153 4.60932 123.388 4.69265C123.623 4.77598 123.86 4.84606 124.098 4.90288L125.189 5.1756C125.629 5.27788 126.051 5.41613 126.456 5.59038C126.865 5.76462 127.231 5.98432 127.553 6.24947C127.879 6.51462 128.136 6.83469 128.326 7.20969C128.515 7.58469 128.61 8.02409 128.61 8.52788C128.61 9.20969 128.436 9.81007 128.087 10.329C127.739 10.8442 127.235 11.2476 126.576 11.5392C125.92 11.8271 125.127 11.9711 124.195 11.9711C123.29 11.9711 122.504 11.8309 121.837 11.5506C121.174 11.2703 120.655 10.8612 120.28 10.3233C119.909 9.78545 119.708 9.13015 119.678 8.35742H121.752C121.782 8.76272 121.907 9.09985 122.127 9.36879C122.346 9.63772 122.632 9.83848 122.985 9.97106C123.341 10.1036 123.739 10.1699 124.178 10.1699C124.636 10.1699 125.038 10.1017 125.382 9.96538C125.731 9.82522 126.004 9.63204 126.201 9.38583C126.398 9.13583 126.498 8.84416 126.502 8.51083C126.498 8.2078 126.409 7.9578 126.235 7.76083C126.061 7.56007 125.816 7.39341 125.502 7.26083C125.191 7.12447 124.828 7.00326 124.411 6.89719L123.087 6.55629C122.129 6.31007 121.371 5.93697 120.814 5.43697C120.261 4.93318 119.985 4.26462 119.985 3.43128C119.985 2.74568 120.17 2.1453 120.542 1.63015C120.917 1.115 121.426 0.715376 122.07 0.431285C122.714 0.143406 123.443 -0.000533104 124.257 -0.000533104C125.083 -0.000533104 125.807 0.143406 126.428 0.431285C127.053 0.715376 127.543 1.11121 127.9 1.61878C128.256 2.12257 128.439 2.70212 128.451 3.35742H126.422Z" fill="#393A3A"/>
</svg>
