<svg width="161" height="15" viewBox="0 0 161 15" fill="none" xmlns="http://www.w3.org/2000/svg">
<path d="M8.87513e-05 0.198686H3.22452L7.5427 10.7385H7.71316L12.0313 0.198686H15.2558V14.7441H12.7274V4.75124H12.5924L8.57253 14.7015H6.68333L2.66344 4.72994H2.5285V14.7441H8.87513e-05V0.198686ZM20.393 14.7441H17.5805L22.7012 0.198686H25.9541L31.0819 14.7441H28.2694L24.3845 3.18164H24.2708L20.393 14.7441ZM20.4853 9.04102H28.1558V11.1575H20.4853V9.04102ZM45.3509 0.198686V14.7441H43.0071L36.1534 4.83647H36.0327V14.7441H33.3977V0.198686H35.7557L42.6023 10.1135H42.7301V0.198686H45.3509ZM48.622 14.7441V0.198686H58.0822V2.40749H51.2569V6.35636H57.5921V8.56516H51.2569V12.5353H58.139V14.7441H48.622ZM66.5313 0.198686H69.7558L74.074 10.7385H74.2444L78.5626 0.198686H81.787V14.7441H79.2586V4.75124H79.1237L75.1038 14.7015H73.2146L69.1947 4.72994H69.0597V14.7441H66.5313V0.198686ZM94.2254 0.198686H96.8603V9.70153C96.8603 10.7432 96.6141 11.6594 96.1217 12.4501C95.634 13.2408 94.9474 13.8587 94.062 14.3038C93.1766 14.7441 92.142 14.9643 90.9583 14.9643C89.7699 14.9643 88.733 14.7441 87.8475 14.3038C86.9621 13.8587 86.2756 13.2408 85.7879 12.4501C85.3002 11.6594 85.0563 10.7432 85.0563 9.70153V0.198686H87.6913V9.48136C87.6913 10.0874 87.8239 10.6272 88.089 11.1007C88.3589 11.5742 88.7377 11.9458 89.2254 12.2157C89.7131 12.4809 90.2907 12.6135 90.9583 12.6135C91.6259 12.6135 92.2036 12.4809 92.6913 12.2157C93.1837 11.9458 93.5625 11.5742 93.8276 11.1007C94.0928 10.6272 94.2254 10.0874 94.2254 9.48136V0.198686ZM108.029 4.19727C107.963 3.577 107.683 3.09405 107.191 2.7484C106.703 2.40276 106.069 2.22994 105.288 2.22994C104.738 2.22994 104.267 2.3128 103.874 2.47852C103.481 2.64423 103.181 2.86914 102.972 3.15323C102.764 3.43732 102.657 3.76166 102.653 4.12624C102.653 4.42927 102.721 4.69206 102.859 4.9146C103.001 5.13713 103.192 5.32653 103.434 5.48278C103.675 5.63429 103.943 5.76213 104.237 5.8663C104.53 5.97047 104.826 6.05806 105.124 6.12908L106.488 6.46999C107.037 6.59783 107.565 6.77066 108.072 6.98846C108.583 7.20626 109.04 7.48088 109.442 7.81232C109.85 8.14376 110.172 8.54386 110.408 9.01261C110.645 9.48136 110.764 10.0306 110.764 10.6603C110.764 11.5126 110.546 12.2631 110.11 12.9118C109.675 13.5557 109.045 14.06 108.221 14.4245C107.402 14.7844 106.41 14.9643 105.245 14.9643C104.113 14.9643 103.131 14.7441 102.298 14.4387C101.469 14.0884 100.82 13.577 100.352 12.9047C99.8876 12.2323 99.6366 11.4132 99.5987 10.4473H102.191C102.229 10.9539 102.385 11.3753 102.66 11.7115C102.934 12.0476 103.292 12.2986 103.732 12.4643C104.177 12.63 104.675 12.7129 105.224 12.7129C105.797 12.7129 106.299 12.6277 106.729 12.4572C107.165 12.282 107.506 12.0405 107.752 11.7328C107.998 11.4203 108.124 11.0557 108.129 10.639C108.124 10.2602 108.013 9.94774 107.795 9.70153C107.577 9.45058 107.272 9.24225 106.879 9.07653C106.49 8.90607 106.036 8.75456 105.515 8.62198L103.86 8.19585C102.662 7.88808 101.715 7.4217 101.019 6.7967C100.328 6.16696 99.9823 5.33126 99.9823 4.28959C99.9823 3.43259 100.214 2.68211 100.678 2.03817C101.147 1.39424 101.784 0.894709 102.589 0.539594C103.394 0.179746 104.305 -0.000178099 105.323 -0.000178099C106.355 -0.000178099 107.26 0.179746 108.036 0.539594C108.817 0.894709 109.431 1.3895 109.876 2.02397C110.321 2.6537 110.55 3.37814 110.565 4.19727H108.029ZM116.148 0.198686V14.7441H113.513V0.198686H116.148ZM131.354 0.198686V14.7441H129.01L122.157 4.83647H122.036V14.7441H119.401V0.198686H121.759L128.605 10.1135H128.733V0.198686H131.354ZM144.369 4.84357C144.251 4.46005 144.088 4.11677 143.879 3.81374C143.676 3.50598 143.43 3.24319 143.141 3.02539C142.857 2.80759 142.53 2.64423 142.161 2.53533C141.791 2.4217 141.389 2.36488 140.953 2.36488C140.172 2.36488 139.476 2.56138 138.865 2.95437C138.254 3.34736 137.774 3.92501 137.423 4.68732C137.078 5.4449 136.905 6.36819 136.905 7.45721C136.905 8.55569 137.078 9.48609 137.423 10.2484C137.769 11.0107 138.25 11.5907 138.865 11.9885C139.481 12.3815 140.196 12.5779 141.01 12.5779C141.749 12.5779 142.388 12.4359 142.928 12.1518C143.472 11.8677 143.891 11.4653 144.185 10.9444C144.478 10.4189 144.625 9.80333 144.625 9.09783L145.222 9.19016H141.273V7.1305H147.175V8.87766C147.175 10.1229 146.91 11.2001 146.379 12.1092C145.849 13.0183 145.12 13.719 144.192 14.2115C143.264 14.6992 142.198 14.943 140.996 14.943C139.656 14.943 138.479 14.6423 137.466 14.041C136.457 13.435 135.669 12.5756 135.101 11.4629C134.537 10.3455 134.256 9.01971 134.256 7.48562C134.256 6.31138 134.421 5.26261 134.753 4.33931C135.089 3.41602 135.558 2.6324 136.159 1.98846C136.761 1.33978 137.466 0.84736 138.276 0.511186C139.085 0.170276 139.966 -0.000178099 140.918 -0.000178099C141.723 -0.000178099 142.473 0.118193 143.169 0.354936C143.865 0.586943 144.483 0.918383 145.023 1.34925C145.567 1.78013 146.015 2.29149 146.365 2.88334C146.716 3.4752 146.945 4.12861 147.054 4.84357H144.369ZM158.028 4.19727C157.961 3.577 157.682 3.09405 157.19 2.7484C156.702 2.40276 156.067 2.22994 155.286 2.22994C154.737 2.22994 154.266 2.3128 153.873 2.47852C153.48 2.64423 153.179 2.86914 152.971 3.15323C152.762 3.43732 152.656 3.76166 152.651 4.12624C152.651 4.42927 152.72 4.69206 152.857 4.9146C152.999 5.13713 153.191 5.32653 153.432 5.48278C153.674 5.63429 153.941 5.76213 154.235 5.8663C154.529 5.97047 154.824 6.05806 155.123 6.12908L156.486 6.46999C157.036 6.59783 157.564 6.77066 158.07 6.98846C158.582 7.20626 159.038 7.48088 159.441 7.81232C159.848 8.14376 160.17 8.54386 160.407 9.01261C160.644 9.48136 160.762 10.0306 160.762 10.6603C160.762 11.5126 160.544 12.2631 160.109 12.9118C159.673 13.5557 159.043 14.06 158.219 14.4245C157.4 14.7844 156.408 14.9643 155.243 14.9643C154.112 14.9643 153.129 14.7441 152.296 14.4387C151.467 14.0884 150.819 13.577 150.35 12.9047C149.886 12.2323 149.635 11.4132 149.597 10.4473H152.19C152.227 10.9539 152.384 11.3753 152.658 11.7115C152.933 12.0476 153.29 12.2986 153.731 12.4643C154.176 12.63 154.673 12.7129 155.222 12.7129C155.795 12.7129 156.297 12.6277 156.728 12.4572C157.163 12.282 157.504 12.0405 157.751 11.7328C157.997 11.4203 158.122 11.0557 158.127 10.639C158.122 10.2602 158.011 9.94774 157.793 9.70153C157.575 9.45058 157.27 9.24225 156.877 9.07653C156.489 8.90607 156.034 8.75456 155.513 8.62198L153.859 8.19585C152.661 7.88808 151.714 7.4217 151.018 6.7967C150.326 6.16696 149.981 5.33126 149.981 4.28959C149.981 3.43259 150.213 2.68211 150.677 2.03817C151.145 1.39424 151.782 0.894709 152.587 0.539594C153.392 0.179746 154.304 -0.000178099 155.322 -0.000178099C156.354 -0.000178099 157.258 0.179746 158.035 0.539594C158.816 0.894709 159.429 1.3895 159.874 2.02397C160.319 2.6537 160.549 3.37814 160.563 4.19727H158.028Z" fill="#393A3A"/>
</svg>
